<?xml version="1.0" encoding="UTF-8"?>
<svg width="256px" height="256px" viewBox="0 0 256 256" version="1.1" xmlns="http://www.w3.org/2000/svg" xmlns:xlink="http://www.w3.org/1999/xlink">
    <title>Artboard Copy 2</title>
    <g id="Artboard-Copy-2" stroke="none" stroke-width="1" fill="none" fill-rule="evenodd">
        <g id="Group" transform="translate(128.500000, 128.000000) scale(-1, 1) rotate(-180.000000) translate(-128.500000, -128.000000) translate(49.000000, 33.000000)" fill="#000000" fill-rule="nonzero">
            <path d="M21.6983945,177.515326 L0.18233945,165.06705 L0.0729357798,95.1091954 L0,25.1149425 L1.34931193,24.2777778 C2.11513761,23.8045977 11.8885321,18.1264368 23.0477064,11.7203065 L43.3603211,0 L79.5,0 L115.639679,0 L135.952294,11.683908 C147.111468,18.1264368 156.884862,23.7681992 157.650688,24.2413793 L159,25.1149425 L159,94.9636015 C159,150.398467 158.890596,164.885057 158.562385,165.176245 C158.30711,165.358238 148.533716,171.036398 136.827523,177.770115 L115.603211,190 L79.3905963,189.963602 L43.2144495,189.927203 L21.6983945,177.515326 Z M122.53211,95 L122.53211,32.394636 L79.5,32.394636 L36.4678899,32.394636 L36.4678899,95 L36.4678899,157.605364 L79.5,157.605364 L122.53211,157.605364 L122.53211,95 Z" id="Shape"></path>
        </g>
    </g>
</svg>